<svg width="20" height="11" viewBox="0 0 20 11" fill="none" xmlns="http://www.w3.org/2000/svg">
<path d="M0 2C0 0.89543 0.895431 0 2 0H12C12.5523 0 13 0.447715 13 1V9H0V2Z" fill="white"/>
<path d="M13 3C13 2.44772 13.4477 2 14 2H18C18.5523 2 19 2.44772 19 3V9H13V3Z" fill="white"/>
<path d="M13 5C13 4.44772 13.4477 4 14 4H19C19.5523 4 20 4.44772 20 5V9H13V5Z" fill="white"/>
<path d="M15 2C15 1.72386 15.2239 1.5 15.5 1.5H16.5C16.7761 1.5 17 1.72386 17 2H15Z" fill="#FF4949"/>
<path d="M5 9C5 10.1046 4.10457 11 3 11C1.89543 11 1 10.1046 1 9C1 7.89543 1.89543 7 3 7C4.10457 7 5 7.89543 5 9Z" fill="#4F4F4F"/>
<path d="M12 9C12 10.1046 11.1046 11 10 11C8.89543 11 8 10.1046 8 9C8 7.89543 8.89543 7 10 7C11.1046 7 12 7.89543 12 9Z" fill="#4F4F4F"/>
<path d="M18 9C18 10.1046 17.1046 11 16 11C14.8954 11 14 10.1046 14 9C14 7.89543 14.8954 7 16 7C17.1046 7 18 7.89543 18 9Z" fill="#4F4F4F"/>
<path d="M17 9C17 9.55229 16.5523 10 16 10C15.4477 10 15 9.55229 15 9C15 8.44771 15.4477 8 16 8C16.5523 8 17 8.44771 17 9Z" fill="#9A9A9A"/>
<path d="M11 9C11 9.55229 10.5523 10 10 10C9.44771 10 9 9.55229 9 9C9 8.44771 9.44771 8 10 8C10.5523 8 11 8.44771 11 9Z" fill="#9A9A9A"/>
<path d="M4 9C4 9.55229 3.55228 10 3 10C2.44772 10 2 9.55229 2 9C2 8.44771 2.44772 8 3 8C3.55228 8 4 8.44771 4 9Z" fill="#9A9A9A"/>
<path d="M14 3C14 2.72386 14.2239 2.5 14.5 2.5H17.5C17.7761 2.5 18 2.72386 18 3V4.8C18 4.91046 17.9105 5 17.8 5H14.2C14.0895 5 14 4.91046 14 4.8V3Z" fill="#6EB7FF"/>
<path d="M0 5H13V7H0V5Z" fill="#FF4949"/>
<path d="M4 2H7V3H4V2Z" fill="#FF4949"/>
<path d="M5 4V1H6V4H5Z" fill="#FF4949"/>
</svg>
